<?xml version="1.0" encoding="UTF-8"?>
<!DOCTYPE svg PUBLIC "-//W3C//DTD SVG 1.1//EN" "http://www.w3.org/Graphics/SVG/1.1/DTD/svg11.dtd">
<!-- Creator: CorelDRAW X7 -->
<svg xmlns="http://www.w3.org/2000/svg" xml:space="preserve" width="24px" height="24px" version="1.1" style="shape-rendering:geometricPrecision; text-rendering:geometricPrecision; image-rendering:optimizeQuality; fill-rule:evenodd; clip-rule:evenodd"
viewBox="0 0 24 24"
 xmlns:xlink="http://www.w3.org/1999/xlink"
 xmlns:serif="http://www.serif.com/">
 <defs>
  <style type="text/css">
   <![CDATA[
    .fil0 {fill:#1A1A1A;fill-rule:nonzero}
   ]]>
  </style>
 </defs>
 <g id="Camada_x0020_1">
  <metadata id="CorelCorpID_0Corel-Layer"/>
  <g id="_1350244144448">
   <path class="fil0" d="M24 12c0,-7 -5,-12 -12,-12 -7,0 -12,5 -12,12 0,6 4,11 10,12l0 -8 -3 0 0 -4 3 0 0 -3c0,-3 2,-4 5,-4 1,0 2,0 2,0l0 3 -1 0c-2,0 -2,1 -2,2l0 2 3 0 0 4 -3 0 0 8c6,-1 10,-6 10,-12l0 0z"/>
  </g>
 </g>
</svg>
