<?xml version="1.0" encoding="UTF-8"?>
<!DOCTYPE svg PUBLIC "-//W3C//DTD SVG 1.1//EN" "http://www.w3.org/Graphics/SVG/1.1/DTD/svg11.dtd">
<!-- Creator: CorelDRAW X7 -->
<svg xmlns="http://www.w3.org/2000/svg" xml:space="preserve" width="24px" height="24px" version="1.1" style="shape-rendering:geometricPrecision; text-rendering:geometricPrecision; image-rendering:optimizeQuality; fill-rule:evenodd; clip-rule:evenodd"
viewBox="0 0 24 24"
 xmlns:xlink="http://www.w3.org/1999/xlink">
 <defs>
  <style type="text/css">
   <![CDATA[
    .fil0 {fill:#1A1A1A}
   ]]>
  </style>
 </defs>
 <g id="Camada_x0020_1">
  <metadata id="CorelCorpID_0Corel-Layer"/>
  <g id="_1315751829648">
   <g>
    <circle class="fil0" cx="12" cy="12" r="2"/>
    <path class="fil0" d="M15 7l-6 0c-1,0 -1,0 -2,1 0,0 0,1 0,1l0 6c0,1 0,1 0,2 1,0 1,0 2,0l6 0c0,0 1,0 1,0 1,-1 1,-1 1,-2l0 -6c0,0 0,-1 0,-1 -1,-1 -2,-1 -2,-1zm-3 8c-2,0 -3,-1 -3,-3 0,-2 1,-3 3,-3 2,0 3,1 3,3 0,2 -1,3 -3,3zm3 -6c0,0 0,0 0,0 0,-1 0,-1 0,-1 1,0 1,0 1,1 0,0 0,0 -1,0z"/>
    <path class="fil0" d="M12 0c-7,0 -12,5 -12,12 0,7 5,12 12,12 7,0 12,-5 12,-12 0,-7 -5,-12 -12,-12zm6 15c0,1 0,2 -1,3 0,0 -1,1 -2,1l-6 0c-1,0 -2,-1 -2,-1 -1,-1 -2,-2 -2,-3l0 -6c0,-2 2,-3 4,-3l6 0c1,0 2,0 2,1 1,0 1,1 1,2l0 6z"/>
   </g>
  </g>
 </g>
</svg>
