<?xml version="1.0" encoding="UTF-8"?>
<!DOCTYPE svg PUBLIC "-//W3C//DTD SVG 1.1//EN" "http://www.w3.org/Graphics/SVG/1.1/DTD/svg11.dtd">
<!-- Creator: CorelDRAW X7 -->
<svg xmlns="http://www.w3.org/2000/svg" xml:space="preserve" width="24px" height="24px" version="1.1" style="shape-rendering:geometricPrecision; text-rendering:geometricPrecision; image-rendering:optimizeQuality; fill-rule:evenodd; clip-rule:evenodd"
viewBox="0 0 24 24"
 xmlns:xlink="http://www.w3.org/1999/xlink"
 xmlns:serif="http://www.serif.com/">
 <defs>
  <style type="text/css">
   <![CDATA[
    .fil0 {fill:#1A1A1A}
   ]]>
  </style>
 </defs>
 <g id="Camada_x0020_1">
  <metadata id="CorelCorpID_0Corel-Layer"/>
  <g id="_1315756574608">
   <g id="_1350246922416">
    <path class="fil0" d="M12 0c7,0 12,5 12,12 0,7 -5,12 -12,12 -7,0 -12,-5 -12,-12 0,-7 5,-12 12,-12zm7 8c0,0 0,-1 -1,-1 -1,0 -6,0 -6,0 0,0 -5,0 -6,0 -1,0 -1,1 -1,1 0,2 0,4 0,4 0,0 0,2 0,4 0,0 0,1 1,1 1,0 6,0 6,0 0,0 5,0 6,0 1,0 1,-1 1,-1 1,-2 1,-4 1,-4 0,0 0,-2 -1,-4zm-9 6l0 -4 4 2 -4 2 0 0 0 0z"/>
   </g>
  </g>
 </g>
</svg>
